<svg xmlns="http://www.w3.org/2000/svg" viewBox="0 0 24 24" fill="#7ec8ff">
  <path d="M12 .5C5.65.5.5 5.67.5 12.05c0 5.1 3.3 9.43 7.9 10.96.58.11.79-.25.79-.56v-1.99c-3.22.7-3.9-1.56-3.9-1.56-.53-1.35-1.3-1.71-1.3-1.71-1.07-.73.08-.72.08-.72 1.18.08 1.8 1.22 1.8 1.22 1.06 1.81 2.77 1.29 3.45.99.11-.77.42-1.29.76-1.59-2.57-.29-5.27-1.3-5.27-5.76 0-1.27.45-2.31 1.2-3.13-.12-.3-.52-1.49.12-3.1 0 0 .98-.32 3.2 1.2a11.06 11.06 0 0 1 5.83 0c2.22-1.52 3.2-1.2 3.2-1.2.64 1.61.24 2.8.12 3.1.75.82 1.2 1.86 1.2 3.13 0 4.47-2.7 5.47-5.28 5.75.43.37.81 1.08.81 2.19v3.25c0 .31.2.68.8.56a11.58 11.58 0 0 0 7.9-10.96C23.5 5.67 18.35.5 12 .5Z"/>
</svg>
